<svg xmlns="http://www.w3.org/2000/svg" xmlns:xlink="http://www.w3.org/1999/xlink" width="206px" height="39px" viewBox="0 0 206 39" version="1.1">
    <!-- Generator: Sketch 52.5 (67469) - http://www.bohemiancoding.com/sketch -->
    <title>Group Copy 8</title>
    <desc>Created with Sketch.</desc>
    <defs>
        <linearGradient x1="-13.1229441%" y1="-11.0999178%" x2="100%" y2="100%" id="linearGradient-1">
            <stop stop-color="#29C3CF" offset="0%"/>
            <stop stop-color="#16F5E7" offset="100%"/>
        </linearGradient>
    </defs>
    <g id="Page-1" stroke="none" stroke-width="1" fill="none" fillRule="evenodd">
        <g id="Mobile" transform="translate(-20.000000, -20.000000)">
            <g id="Group-Copy-8" transform="translate(20.000000, 20.000000)">
                <path d="M59.3524282,26.5805825 C59.8493383,26.5805825 60.2650165,26.7550144 60.5994753,27.1038835 C60.933934,27.4527526 61.1011609,27.8564378 61.1011609,28.3149515 C61.1011609,28.8133358 60.933934,29.2220049 60.5994753,29.5409709 C60.2650165,29.8599369 59.8493383,30.0194175 59.3524282,30.0194175 L49.7487326,30.0194175 C49.2518225,30.0194175 48.8361443,29.8449856 48.5016856,29.4961165 C48.1672269,29.1472474 48,28.7136595 48,28.1953398 L48,10.9114563 C48,10.3931366 48.1672269,9.95954867 48.5016856,9.61067961 C48.8361443,9.26181055 49.2518225,9.08737864 49.7487326,9.08737864 L59.3524282,9.08737864 C59.8493383,9.08737864 60.2650165,9.25184302 60.5994753,9.5807767 C60.933934,9.90971038 61.1011609,10.3333307 61.1011609,10.8516505 C61.1011609,11.3500349 60.9387119,11.7537201 60.6138091,12.0627184 C60.2889064,12.3717168 59.8684503,12.5262136 59.3524282,12.5262136 L51.5834685,12.5262136 L51.5834685,17.6097087 L58.0623796,17.6097087 C58.5592897,17.6097087 58.9749679,17.7741731 59.3094266,18.1031068 C59.6438853,18.4320405 59.8111122,18.8556608 59.8111122,19.3739806 C59.8111122,19.872365 59.6486633,20.2760502 59.3237605,20.5850485 C58.9988577,20.8940469 58.5784016,21.0485437 58.0623796,21.0485437 L51.5834685,21.0485437 L51.5834685,26.5805825 L59.3524282,26.5805825 Z M76.4192486,13.7087379 C76.9142394,13.7087379 77.3235527,13.8780472 77.6472006,14.216671 C77.9708485,14.5552949 78.13267,14.9935073 78.13267,15.5313216 L78.13267,28.1698942 C78.13267,28.6877894 77.9708485,29.1210222 77.6472006,29.4696055 C77.3235527,29.8181889 76.9142394,29.9924779 76.4192486,29.9924779 C75.9242577,29.9924779 75.5197039,29.8231685 75.2055751,29.4845447 C74.8914462,29.1459209 74.7248653,28.7176678 74.7058271,28.1997726 C74.2298744,28.777425 73.5873478,29.270414 72.778228,29.6787545 C71.9691083,30.087095 71.1171656,30.2912621 70.2223744,30.2912621 C68.9087448,30.2912621 67.7188807,29.9377043 66.6527465,29.2305782 C65.5866123,28.523452 64.7441885,27.5424536 64.1254499,26.2875536 C63.5067113,25.0326536 63.1973466,23.608463 63.1973466,22.0149392 C63.1973466,20.4214154 63.5019518,18.9922452 64.1111714,17.7273856 C64.7203909,16.4625261 65.5532958,15.476548 66.6099109,14.7694218 C67.6665261,14.0622957 68.8325929,13.7087379 70.1081463,13.7087379 C71.0219757,13.7087379 71.8786778,13.8830269 72.6782785,14.2316103 C73.4778791,14.5801936 74.1537219,15.0233857 74.7058271,15.5612 L74.7058271,15.5313216 C74.7058271,15.0134264 74.8676487,14.5801936 75.1912965,14.2316103 C75.5149444,13.8830269 75.9242577,13.7087379 76.4192486,13.7087379 Z M70.7817115,27.0291262 C72.021782,27.0291262 73.0329013,26.5537409 73.8150997,25.6029561 C74.5972981,24.6521713 74.9883914,23.456202 74.9883914,22.0150123 C74.9883914,20.5738227 74.5972981,19.3728493 73.8150997,18.4120562 C73.0329013,17.4512631 72.021782,16.9708738 70.7817115,16.9708738 C69.5607189,16.9708738 68.5591385,17.4512631 67.7769401,18.4120562 C66.9947417,19.3728493 66.6036484,20.5738227 66.6036484,22.0150123 C66.6036484,23.456202 66.9899723,24.6521713 67.7626317,25.6029561 C68.535291,26.5537409 69.5416409,27.0291262 70.7817115,27.0291262 Z M89.7322651,13.7087379 C90.302863,13.7087379 90.7831089,13.8783273 91.1730174,14.2175114 C91.5629259,14.5566954 91.7578773,14.9557294 91.7578773,15.4146255 C91.7578773,16.0331375 91.6057201,16.4970146 91.3014013,16.8062706 C90.9970825,17.1155266 90.6357093,17.2701523 90.2172709,17.2701523 C89.9319719,17.2701523 89.608638,17.2003214 89.2472594,17.0606573 C89.1901996,17.0407053 89.061817,17.0008019 88.8621078,16.9409459 C88.6623986,16.8810899 88.4484276,16.8511624 88.2201885,16.8511624 C87.7256703,16.8511624 87.2501793,17.010776 86.793701,17.330008 C86.3372228,17.64924 85.9615848,18.1330688 85.666776,18.7815089 C85.3719671,19.4299489 85.2245649,20.2030774 85.2245649,21.1009174 L85.2245649,28.1938185 C85.2245649,28.7125705 85.0628979,29.14652 84.7395591,29.4956801 C84.4162204,29.8448401 84.0072981,30.0194175 83.5127799,30.0194175 C83.0182618,30.0194175 82.6093395,29.8448401 82.2860008,29.4956801 C81.962662,29.14652 81.800995,28.7125705 81.800995,28.1938185 L81.800995,15.8336154 C81.800995,15.3148634 81.962662,14.8809138 82.2860008,14.5317538 C82.6093395,14.1825938 83.0182618,14.0080164 83.5127799,14.0080164 C84.0072981,14.0080164 84.4162204,14.1825938 84.7395591,14.5317538 C85.0628979,14.8809138 85.2245649,15.3148634 85.2245649,15.8336154 L85.2245649,16.2226775 C85.6620242,15.4046454 86.2896714,14.7811547 87.1075283,14.3521867 C87.9253851,13.9232187 88.8002887,13.7087379 89.7322651,13.7087379 Z M98.0464345,28.2043033 C98.0464345,28.7200761 97.880852,29.1515333 97.5496821,29.498688 C97.2185123,29.8458427 96.8069216,30.0194175 96.3148977,30.0194175 C95.8417979,30.0194175 95.4444,29.8458427 95.1226921,29.498688 C94.8009842,29.1515333 94.6401327,28.7200761 94.6401327,28.2043033 L94.6401327,9.81511414 C94.6401327,9.29934143 94.8057151,8.86788418 95.136885,8.52072947 C95.4680549,8.17357475 95.8796456,8 96.3716694,8 C96.8447693,8 97.2421672,8.17357475 97.5638751,8.52072947 C97.885583,8.86788418 98.0464345,9.29934143 98.0464345,9.81511414 L98.0464345,28.2043033 Z M114.405972,13.9805825 C114.902882,13.9805825 115.313782,14.1553381 115.638685,14.5048544 C115.963588,14.8543707 116.126036,15.288763 116.126036,15.8080444 L116.126036,28.5403606 C116.126036,31.1367675 115.457129,33.0291203 114.119294,34.2174757 C112.781459,35.4058312 110.994521,36 108.758425,36 C108.10862,36 107.44449,35.9450768 106.766017,35.8352288 C106.087543,35.7253809 105.538084,35.5805834 105.117621,35.4008322 C104.181137,34.9814126 103.712902,34.4022228 103.712902,33.6632455 C103.712902,33.523439 103.741569,33.3636625 103.798905,33.1839112 C103.913576,32.7445193 104.109471,32.4099873 104.386594,32.1803051 C104.663717,31.950623 104.964725,31.8357836 105.289628,31.8357836 C105.480747,31.8357836 105.662308,31.8657417 105.834315,31.9256588 C105.968098,31.9855759 106.202216,32.0854362 106.536675,32.2252427 C106.871133,32.3650492 107.224699,32.4798886 107.597381,32.5697642 C107.970064,32.6596398 108.357075,32.704577 108.758425,32.704577 C110.115372,32.704577 111.113955,32.400003 111.754205,31.790846 C112.394454,31.181689 112.714574,30.1381489 112.714574,28.6601942 L112.714574,28.3606103 C111.720754,29.6588137 110.172711,30.3079057 108.070399,30.3079057 C107.076579,30.3079057 106.197444,30.0632479 105.432966,29.5739251 C104.668489,29.0846023 104.076028,28.4055522 103.655566,27.5367545 C103.235104,26.6679568 103.024876,25.6743468 103.024876,24.5558946 L103.024876,15.8080444 C103.024876,15.288763 103.187325,14.8543707 103.512227,14.5048544 C103.83713,14.1553381 104.24803,13.9805825 104.744941,13.9805825 C105.241851,13.9805825 105.652751,14.1553381 105.977654,14.5048544 C106.302556,14.8543707 106.465005,15.288763 106.465005,15.8080444 L106.465005,23.4773925 C106.465005,24.7356512 106.72779,25.639387 107.253368,26.1886269 C107.778946,26.7378668 108.54819,27.0124827 109.561122,27.0124827 C110.554942,27.0124827 111.324186,26.7079087 111.868876,26.0987517 C112.413566,25.4895947 112.685907,24.6158171 112.685907,23.4773925 L112.685907,15.8080444 C112.685907,15.288763 112.848356,14.8543707 113.173258,14.5048544 C113.498161,14.1553381 113.909061,13.9805825 114.405972,13.9805825 Z M126.387514,30.2912621 C125.02519,30.2912621 123.814252,30.1122995 122.754666,29.7543689 C121.69508,29.3964383 120.701733,28.7899539 119.774596,27.9348975 C119.263724,27.4576567 119.008292,26.9307113 119.008292,26.3540453 C119.008292,25.8966896 119.169119,25.4940237 119.49078,25.1460356 C119.81244,24.7980475 120.200318,24.6240561 120.654426,24.6240561 C121.013929,24.6240561 121.335584,24.7433645 121.619401,24.9819849 C122.376249,25.638191 123.114163,26.1154246 123.833168,26.4137001 C124.552173,26.7119756 125.403613,26.8611111 126.387514,26.8611111 C127.4471,26.8611111 128.360034,26.6125519 129.126341,26.1154261 C129.892649,25.6183003 130.275797,25.0018735 130.275797,24.2661273 C130.275797,23.3713008 129.897379,22.6703639 129.140532,22.1632956 C128.383685,21.6562272 127.182208,21.2734461 125.536066,21.0149407 C121.392328,20.3786196 119.32049,18.3503767 119.32049,14.930151 C119.32049,13.677394 119.632685,12.5887047 120.257083,11.6640507 C120.881482,10.7393967 121.732922,10.0334886 122.81143,9.54630529 C123.889937,9.05912198 125.091414,8.81553398 126.415896,8.81553398 C127.60793,8.81553398 128.728993,9.00443896 129.779119,9.38225458 C130.829244,9.76007021 131.704335,10.2571886 132.404419,10.8736246 C132.953133,11.3309804 133.227486,11.8579258 133.227486,12.4544768 C133.227486,12.9118326 133.066658,13.3144984 132.744998,13.6624865 C132.423338,14.0104746 132.044921,14.184466 131.609733,14.184466 C131.325916,14.184466 131.070484,14.0949847 130.84343,13.9160194 C130.351479,13.4984337 129.665596,13.1156526 128.785762,12.7676645 C127.905927,12.4196764 127.11598,12.245685 126.415896,12.245685 C125.223862,12.245685 124.301468,12.4793306 123.648688,12.9466289 C122.995907,13.4139272 122.669522,14.0253828 122.669522,14.781014 C122.669522,15.6360704 123.005367,16.2823243 123.677069,16.719795 C124.348771,17.1572658 125.403611,17.515191 126.84162,17.7935814 C128.468842,18.0918569 129.769653,18.4746381 130.744094,18.9419364 C131.718535,19.4092346 132.451719,20.0455461 132.94367,20.85089 C133.43562,21.6562338 133.681592,22.7250383 133.681592,24.0573355 C133.681592,25.3100926 133.345746,26.4087242 132.674044,27.3532632 C132.002343,28.2978023 131.10833,29.0235951 129.991981,29.5306634 C128.875631,30.0377318 127.674154,30.2912621 126.387514,30.2912621 Z M149.261703,13.7087379 C149.756694,13.7087379 150.166007,13.8780472 150.489655,14.216671 C150.813303,14.5552949 150.975124,14.9935073 150.975124,15.5313216 L150.975124,28.1698942 C150.975124,28.6877894 150.813303,29.1210222 150.489655,29.4696055 C150.166007,29.8181889 149.756694,29.9924779 149.261703,29.9924779 C148.766712,29.9924779 148.362158,29.8231685 148.048029,29.4845447 C147.733901,29.1459209 147.56732,28.7176678 147.548282,28.1997726 C147.072329,28.777425 146.429802,29.270414 145.620682,29.6787545 C144.811563,30.087095 143.95962,30.2912621 143.064829,30.2912621 C141.751199,30.2912621 140.561335,29.9377043 139.495201,29.2305782 C138.429067,28.523452 137.586643,27.5424536 136.967904,26.2875536 C136.349166,25.0326536 136.039801,23.608463 136.039801,22.0149392 C136.039801,20.4214154 136.344406,18.9922452 136.953626,17.7273856 C137.562845,16.4625261 138.39575,15.476548 139.452365,14.7694218 C140.50898,14.0622957 141.675047,13.7087379 142.950601,13.7087379 C143.86443,13.7087379 144.721132,13.8830269 145.520733,14.2316103 C146.320334,14.5801936 146.996176,15.0233857 147.548282,15.5612 L147.548282,15.5313216 C147.548282,15.0134264 147.710103,14.5801936 148.033751,14.2316103 C148.357399,13.8830269 148.766712,13.7087379 149.261703,13.7087379 Z M143.362143,27.0291262 C144.602213,27.0291262 145.613333,26.5537409 146.395531,25.6029561 C147.177729,24.6521713 147.568823,23.456202 147.568823,22.0150123 C147.568823,20.5738227 147.177729,19.3728493 146.395531,18.4120562 C145.613333,17.4512631 144.602213,16.9708738 143.362143,16.9708738 C142.14115,16.9708738 141.13957,17.4512631 140.357371,18.4120562 C139.575173,19.3728493 139.18408,20.5738227 139.18408,22.0150123 C139.18408,23.456202 139.570403,24.6521713 140.343063,25.6029561 C141.115722,26.5537409 142.122072,27.0291262 143.362143,27.0291262 Z M158.573798,28.2043033 C158.573798,28.7200761 158.408215,29.1515333 158.077045,29.498688 C157.745875,29.8458427 157.334285,30.0194175 156.842261,30.0194175 C156.369161,30.0194175 155.971763,29.8458427 155.650055,29.498688 C155.328347,29.1515333 155.167496,28.7200761 155.167496,28.2043033 L155.167496,9.81511414 C155.167496,9.29934143 155.333078,8.86788418 155.664248,8.52072947 C155.995418,8.17357475 156.407009,8 156.899033,8 C157.372132,8 157.76953,8.17357475 158.091238,8.52072947 C158.412946,8.86788418 158.573798,9.29934143 158.573798,9.81511414 L158.573798,28.2043033 Z M174.939978,13.7087379 C175.434969,13.7087379 175.844282,13.8780472 176.16793,14.216671 C176.491578,14.5552949 176.6534,14.9935073 176.6534,15.5313216 L176.6534,28.1698942 C176.6534,28.6877894 176.491578,29.1210222 176.16793,29.4696055 C175.844282,29.8181889 175.434969,29.9924779 174.939978,29.9924779 C174.444987,29.9924779 174.040434,29.8231685 173.726305,29.4845447 C173.412176,29.1459209 173.245595,28.7176678 173.226557,28.1997726 C172.750604,28.777425 172.108077,29.270414 171.298958,29.6787545 C170.489838,30.087095 169.637895,30.2912621 168.743104,30.2912621 C167.429474,30.2912621 166.23961,29.9377043 165.173476,29.2305782 C164.107342,28.523452 163.264918,27.5424536 162.64618,26.2875536 C162.027441,25.0326536 161.718076,23.608463 161.718076,22.0149392 C161.718076,20.4214154 162.022681,18.9922452 162.631901,17.7273856 C163.241121,16.4625261 164.074025,15.476548 165.130641,14.7694218 C166.187256,14.0622957 167.353323,13.7087379 168.628876,13.7087379 C169.542705,13.7087379 170.399407,13.8830269 171.199008,14.2316103 C171.998609,14.5801936 172.674452,15.0233857 173.226557,15.5612 L173.226557,15.5313216 C173.226557,15.0134264 173.388378,14.5801936 173.712026,14.2316103 C174.035674,13.8830269 174.444987,13.7087379 174.939978,13.7087379 Z M169.302441,27.0291262 C170.542512,27.0291262 171.553631,26.5537409 172.335829,25.6029561 C173.118028,24.6521713 173.509121,23.456202 173.509121,22.0150123 C173.509121,20.5738227 173.118028,19.3728493 172.335829,18.4120562 C171.553631,17.4512631 170.542512,16.9708738 169.302441,16.9708738 C168.081449,16.9708738 167.079868,17.4512631 166.29767,18.4120562 C165.515471,19.3728493 165.124378,20.5738227 165.124378,22.0150123 C165.124378,23.456202 165.510702,24.6521713 166.283361,25.6029561 C167.056021,26.5537409 168.062371,27.0291262 169.302441,27.0291262 Z M188.515018,13.7087379 C189.085616,13.7087379 189.565862,13.8783273 189.95577,14.2175114 C190.345679,14.5566954 190.54063,14.9557294 190.54063,15.4146255 C190.54063,16.0331375 190.388473,16.4970146 190.084154,16.8062706 C189.779835,17.1155266 189.418462,17.2701523 189.000024,17.2701523 C188.714725,17.2701523 188.391391,17.2003214 188.030012,17.0606573 C187.972953,17.0407053 187.84457,17.0008019 187.644861,16.9409459 C187.445151,16.8810899 187.23118,16.8511624 187.002941,16.8511624 C186.508423,16.8511624 186.032932,17.010776 185.576454,17.330008 C185.119976,17.64924 184.744338,18.1330688 184.449529,18.7815089 C184.15472,19.4299489 184.007318,20.2030774 184.007318,21.1009174 L184.007318,28.1938185 C184.007318,28.7125705 183.845651,29.14652 183.522312,29.4956801 C183.198973,29.8448401 182.790051,30.0194175 182.295533,30.0194175 C181.801015,30.0194175 181.392092,29.8448401 181.068754,29.4956801 C180.745415,29.14652 180.583748,28.7125705 180.583748,28.1938185 L180.583748,15.8336154 C180.583748,15.3148634 180.745415,14.8809138 181.068754,14.5317538 C181.392092,14.1825938 181.801015,14.0080164 182.295533,14.0080164 C182.790051,14.0080164 183.198973,14.1825938 183.522312,14.5317538 C183.845651,14.8809138 184.007318,15.3148634 184.007318,15.8336154 L184.007318,16.2226775 C184.444776,15.4046454 185.072424,14.7811547 185.890281,14.3521867 C186.708138,13.9232187 187.583042,13.7087379 188.515018,13.7087379 Z M204.279935,13.9805825 C204.776845,13.9805825 205.187746,14.1553381 205.512648,14.5048544 C205.837551,14.8543707 206,15.288763 206,15.8080444 L206,28.5403606 C206,31.1367675 205.331093,33.0291203 203.993258,34.2174757 C202.655423,35.4058312 200.868484,36 198.632389,36 C197.982583,36 197.318454,35.9450768 196.63998,35.8352288 C195.961507,35.7253809 195.412047,35.5805834 194.991585,35.4008322 C194.0551,34.9814126 193.586865,34.4022228 193.586865,33.6632455 C193.586865,33.523439 193.615533,33.3636625 193.672868,33.1839112 C193.78754,32.7445193 193.983434,32.4099873 194.260557,32.1803051 C194.53768,31.950623 194.838688,31.8357836 195.163591,31.8357836 C195.354711,31.8357836 195.536271,31.8657417 195.708278,31.9256588 C195.842062,31.9855759 196.07618,32.0854362 196.410638,32.2252427 C196.745097,32.3650492 197.098662,32.4798886 197.471345,32.5697642 C197.844028,32.6596398 198.231038,32.704577 198.632389,32.704577 C199.989336,32.704577 200.987919,32.400003 201.628168,31.790846 C202.268418,31.181689 202.588538,30.1381489 202.588538,28.6601942 L202.588538,28.3606103 C201.594718,29.6588137 200.046675,30.3079057 197.944363,30.3079057 C196.950543,30.3079057 196.071407,30.0632479 195.30693,29.5739251 C194.542453,29.0846023 193.949992,28.4055522 193.52953,27.5367545 C193.109067,26.6679568 192.898839,25.6743468 192.898839,24.5558946 L192.898839,15.8080444 C192.898839,15.288763 193.061288,14.8543707 193.386191,14.5048544 C193.711094,14.1553381 194.121994,13.9805825 194.618904,13.9805825 C195.115814,13.9805825 195.526714,14.1553381 195.851617,14.5048544 C196.17652,14.8543707 196.338969,15.288763 196.338969,15.8080444 L196.338969,23.4773925 C196.338969,24.7356512 196.601754,25.639387 197.127332,26.1886269 C197.65291,26.7378668 198.422154,27.0124827 199.435086,27.0124827 C200.428906,27.0124827 201.198149,26.7079087 201.742839,26.0987517 C202.287529,25.4895947 202.55987,24.6158171 202.55987,23.4773925 L202.55987,15.8080444 C202.55987,15.288763 202.722319,14.8543707 203.047222,14.5048544 C203.372125,14.1553381 203.783025,13.9805825 204.279935,13.9805825 Z" id="EarlySalary" fill="#1FDFDD"/>
                <path d="M5.6422994,-3.12638804e-13 L31.3569315,-3.12638804e-13 C34.4733983,-3.12638804e-13 37,2.66259743 37,5.94801677 L37,33.0519832 C37,36.3368622 34.4733983,39 31.3569315,39 L5.6422994,39 C2.52608897,39 0,36.3368622 0,33.0519832 L0,5.94801677 C0,2.66259743 2.52608897,-3.12638804e-13 5.6422994,-3.12638804e-13 Z M14.0844628,20.5653532 C14.6568642,20.5653532 15.1209311,20.0885611 15.1209311,19.4998661 C15.1209311,18.9114389 14.6568642,18.4346468 14.0844628,18.4346468 L5.9695412,18.4346468 C5.39766071,18.4346468 4.93333333,18.9114389 4.93333333,19.4998661 C4.93333333,20.0885611 5.39766071,20.5653532 5.9695412,20.5653532 L14.0844628,20.5653532 Z M16.9553237,26.0791148 L5.97058287,26.0791148 C5.39766071,26.0791148 4.93333333,26.5564423 4.93333333,27.1454049 L4.93333333,27.1464758 C4.93333333,27.7354385 5.39766071,28.212766 5.97058287,28.212766 L16.9553237,28.212766 C17.527725,28.212766 17.9920524,27.7354385 17.9920524,27.1464758 L17.9920524,27.1454049 C17.9920524,26.5564423 17.527725,26.0791148 16.9553237,26.0791148 Z M16.9553237,10.787234 L5.97058287,10.787234 C5.39766071,10.787234 4.93333333,11.2645615 4.93333333,11.8535242 L4.93333333,11.8545951 C4.93333333,12.44329 5.39766071,12.9203498 5.97058287,12.9203498 L16.9553237,12.9203498 C17.527725,12.9203498 17.9920524,12.44329 17.9920524,11.8545951 L17.9920524,11.8535242 C17.9920524,11.2645615 17.527725,10.787234 16.9553237,10.787234 Z M31.5067655,20.8831253 C30.9697811,19.9983427 30.1299293,19.3764517 29.1728889,18.8977857 C28.2392862,18.443749 27.1431819,18.1329373 25.9528059,17.8933366 L25.9064513,17.8933366 C24.6462829,17.654539 23.595752,17.2717132 22.9889754,16.8417705 C22.6858475,16.6262637 22.4756892,16.4110246 22.3590214,16.219344 C22.242614,16.0284665 22.1954782,15.8367859 22.1954782,15.5500682 C22.1954782,15.0478437 22.4525119,14.5212575 23.0824659,14.0431269 C23.7126802,13.5652639 24.6462829,13.2300906 25.696293,13.2300906 C27.1192233,13.2300906 28.2629843,13.947822 29.4533603,14.7605905 C30.0130011,15.1436839 30.7604041,14.9760973 31.1101471,14.4021264 C31.4833277,13.8519817 31.3203053,13.0865979 30.783321,12.7040399 C29.592945,11.9150976 27.9361583,10.790982 25.696293,10.790982 C24.1793514,10.790982 22.7556398,11.244751 21.6590147,12.0583226 C20.5855669,12.8710911 19.7920697,14.1148732 19.7920697,15.5500682 C19.7920697,16.2672641 19.9790507,16.9370753 20.329054,17.5110462 C20.8420798,18.3479087 21.6118788,18.9457058 22.4991269,19.3764517 C23.3855938,19.8063945 24.4124265,20.0936476 25.5095725,20.308619 L25.5561875,20.308619 C26.9325028,20.5720459 28.0762638,20.9789656 28.7528328,21.4327346 C29.1030966,21.6720676 29.3132548,21.9114006 29.4533603,22.1504659 C29.592945,22.389799 29.6627373,22.6053058 29.6627373,22.915582 C29.6627373,23.5139146 29.3596094,24.1117117 28.6598631,24.6377625 C27.9593356,25.1640809 26.9098463,25.522545 25.7429081,25.522545 C24.0856005,25.5463713 22.3124064,24.5416544 21.2855736,23.6812335 C20.772027,23.2504876 20.002228,23.322234 19.5821718,23.8485525 C19.185293,24.3746032 19.2553458,25.1640809 19.7688924,25.5942914 C21.0988531,26.6704869 23.2223109,27.9616537 25.7429081,27.9854799 C27.3996948,27.9854799 28.916376,27.4832554 30.0598766,26.6225667 C31.2265544,25.7618781 32.0666667,24.4463496 32.0666667,22.915582 C32.0666667,22.1742922 31.8565084,21.4565608 31.5067655,20.8831253 Z" id="Combined-Shape" fill="url(#linearGradient-1)"/>
            </g>
        </g>
    </g>
</svg>