<svg xmlns="http://www.w3.org/2000/svg" width="131" height="34" fill="none" viewBox="0 0 766 200">
    <path fill="#150958" d="M144.828 0v115.909c0 36.106-22.1 66.901-53.126 78.804C82.824 198.127 73.216 200 63.177 200 37.715 200 14.968 187.985 0 169.156l41.113-34.652c5.229 6.58 13.173 10.783 22.064 10.783 15.758 0 28.525-13.149 28.525-29.378V0h53.126z"/>
    <circle cx="265.517" cy="100" r="100" fill="#FFC20E"/>
    <path fill="#FFC20E" fillRule="evenodd" d="M565.517 100c0-55.219 44.757-100 100-100 55.219 0 100 44.794 100 100 0 55.243-44.793 100-100 100-55.243 0-100-44.757-100-100zm136.759 59.371c10.672-6.605 19.433-16.032 25.225-27.234 1.762-3.401.419-7.615-3.019-9.377-3.401-1.763-7.603-.419-9.39 3.006-4.621 8.947-11.62 16.476-20.172 21.799-8.528 5.287-18.583 8.331-29.427 8.331-10.808 0-20.851-3.032-29.403-8.331-8.527-5.323-15.551-12.877-20.209-21.823-1.75-3.401-5.965-4.745-9.39-2.958-3.401 1.75-4.745 5.964-2.958 9.39 5.804 11.177 14.554 20.592 25.225 27.197 10.647 6.629 23.303 10.45 36.735 10.45 13.481.024 26.112-3.821 36.783-10.45z" clip-rule="evenodd"/>
    <path fill="#150958" d="M544.828 100.012c0 55.231-44.547 99.988-99.488 99.988h-59.133V0h59.133c54.941 0 99.488 44.769 99.488 100.012z"/>
</svg>